<?xml version="1.0" encoding="UTF-8"?><svg id="Layer_1" xmlns="http://www.w3.org/2000/svg" viewBox="0 0 2148.47 876.35"><path d="m236.27,464.9H30.64v-23.04c13.05-.38,23.52-1.63,31.39-3.74,7.87-2.11,13.91-6.05,18.14-11.81,4.22-5.76,7.1-13.91,8.64-24.48,1.53-10.56,2.3-24.86,2.3-42.91V127.37c0-16.13-.67-29.47-2.02-40.03-1.35-10.56-3.94-18.91-7.78-25.06-3.84-6.14-9.31-10.46-16.42-12.96-7.11-2.49-16.61-4.12-28.51-4.9v-23.04h194.11v23.04c-11.91.77-21.41,2.4-28.51,4.9-7.11,2.5-12.58,6.82-16.42,12.96-3.84,6.15-6.43,14.5-7.78,25.06-1.35,10.57-2.02,23.9-2.02,40.03v231.55c0,18.05.67,32.36,2.02,42.91,1.34,10.57,4.22,18.72,8.64,24.48,4.41,5.76,10.56,9.7,18.43,11.81,7.87,2.12,18.33,3.37,31.39,3.74v23.04Z" style="fill:#1c5b44;"/><path d="m277.16,464.9v-23.04c12.67-.38,22.94-1.44,30.82-3.17,7.87-1.73,14.01-4.99,18.43-9.79,4.41-4.8,7.39-11.32,8.93-19.58,1.53-8.25,2.3-19.3,2.3-33.12V110.09c0-13.44-.58-24.28-1.73-32.54-1.15-8.25-3.65-14.78-7.49-19.58-3.84-4.8-9.13-8.06-15.84-9.79-6.72-1.73-15.46-2.97-26.21-3.74v-23.04h218.88c36.86,0,70.85,5.76,101.95,17.28,31.1,11.52,57.98,27.46,80.64,47.81,22.65,20.36,40.32,44.55,52.99,72.58,12.67,28.04,19.01,58.56,19.01,91.58s-5.96,60.39-17.86,86.69c-11.91,26.31-28.51,48.87-49.82,67.68-21.31,18.82-46.85,33.51-76.61,44.06-29.76,10.57-62.5,15.84-98.21,15.84h-240.19ZM432.1,56.52c-6.53,0-9.79,3.27-9.79,9.79v297.79c0,22.27,6.91,38.79,20.74,49.54,13.82,10.75,35.14,16.13,63.94,16.13,50.3,0,88.99-15.17,116.06-45.5,27.07-30.33,40.61-74.49,40.61-132.48,0-30.72-3.65-58.18-10.94-82.37-7.3-24.19-17.86-44.64-31.68-61.34s-30.63-29.47-50.4-38.3c-19.78-8.83-41.96-13.25-66.53-13.25h-72Z" style="fill:#1c5b44;"/><path d="m1182.63,144.65c0,41.47-16.13,73.06-48.38,94.75-32.26,21.7-79.11,32.54-140.54,32.54h-48.96v101.38c0,14.6.95,26.41,2.88,35.42,1.92,9.03,5.95,16.04,12.1,21.02,6.14,5,14.59,8.26,25.34,9.79,10.75,1.54,25.15,2.3,43.2,2.3v23.04h-228.67v-23.04c12.67-.38,23.04-1.53,31.1-3.46,8.06-1.92,14.2-5.18,18.43-9.79,4.22-4.61,7.1-11.13,8.64-19.58,1.53-8.44,2.3-19.39,2.3-32.83V110.09c0-13.44-.67-24.28-2.02-32.54-1.35-8.25-3.94-14.78-7.78-19.58-3.84-4.8-9.31-8.06-16.42-9.79-7.11-1.73-16.42-2.97-27.94-3.74v-23.04h199.3c58.37,0,102.53,10.37,132.48,31.1,29.95,20.74,44.93,51.46,44.93,92.16Zm-237.89,92.74h37.44c37.24,0,64.51-7.49,81.79-22.46s25.92-38.59,25.92-70.85c0-28.8-7.3-51.07-21.89-66.82-14.6-15.74-37.44-23.62-68.54-23.62h-44.35c-6.91,0-10.37,3.27-10.37,9.79v173.95Z" style="fill:#1c5b44;"/><path d="m1295.38,23.39v107.64h-13.03V23.39h13.03Z" style="fill:#1c5b44;"/><path d="m1332.17,82.46v48.56h-12.4V50.3h11.98v12.61h1.05c1.89-4.1,4.76-7.4,8.62-9.91,3.85-2.5,8.83-3.76,14.93-3.76,5.47,0,10.25,1.11,14.35,3.34,4.1,2.23,7.29,5.59,9.56,10.09,2.28,4.5,3.42,10.19,3.42,17.05v51.3h-12.4v-50.45c0-6.34-1.65-11.29-4.94-14.85-3.29-3.56-7.81-5.33-13.56-5.33-3.96,0-7.49.86-10.59,2.58-3.1,1.72-5.54,4.22-7.33,7.52-1.79,3.29-2.68,7.29-2.68,11.98Z" style="fill:#1c5b44;"/><path d="m1441.49,50.3v10.51h-41.83v-10.51h41.83Zm-29.64-19.34h12.4v76.94c0,3.5.52,6.12,1.55,7.86,1.03,1.73,2.36,2.89,3.99,3.47,1.63.58,3.35.87,5.18.87,1.37,0,2.49-.08,3.36-.24s1.58-.29,2.1-.39l2.52,11.14c-.84.32-2.01.64-3.52.97-1.51.33-3.42.5-5.73.5-3.5,0-6.93-.75-10.27-2.26-3.35-1.51-6.12-3.8-8.3-6.88-2.19-3.08-3.28-6.97-3.28-11.67V30.96Z" style="fill:#1c5b44;"/><path d="m1493.2,132.71c-7.78,0-14.48-1.73-20.1-5.18-5.62-3.45-9.95-8.29-12.98-14.51-3.03-6.22-4.55-13.46-4.55-21.73s1.51-15.56,4.55-21.89c3.03-6.32,7.27-11.26,12.72-14.82,5.45-3.56,11.82-5.33,19.1-5.33,4.2,0,8.36.7,12.46,2.1,4.1,1.4,7.83,3.67,11.19,6.81,3.36,3.14,6.04,7.28,8.04,12.43,2,5.15,3,11.49,3,19.03v5.26h-62.23v-10.72h49.61c0-4.55-.9-8.62-2.71-12.19-1.8-3.57-4.36-6.39-7.67-8.46-3.31-2.07-7.21-3.1-11.69-3.1-4.94,0-9.21,1.22-12.8,3.65-3.59,2.44-6.35,5.6-8.28,9.49-1.93,3.89-2.89,8.06-2.89,12.51v7.15c0,6.1,1.06,11.26,3.18,15.48,2.12,4.22,5.07,7.43,8.86,9.62,3.78,2.19,8.18,3.28,13.19,3.28,3.26,0,6.21-.46,8.86-1.39,2.65-.93,4.93-2.33,6.86-4.2,1.93-1.87,3.42-4.21,4.47-7.02l11.98,3.36c-1.26,4.06-3.38,7.63-6.36,10.7-2.98,3.07-6.66,5.45-11.04,7.15-4.38,1.7-9.3,2.55-14.77,2.55Z" style="fill:#1c5b44;"/><path d="m1545.55,131.02V50.3h11.98v12.19h.84c1.47-3.99,4.13-7.23,7.99-9.72,3.85-2.49,8.2-3.73,13.03-3.73.91,0,2.05.02,3.42.05,1.37.04,2.4.09,3.1.16v12.61c-.42-.11-1.38-.27-2.86-.5-1.49-.23-3.06-.34-4.7-.34-3.92,0-7.42.81-10.48,2.44-3.07,1.63-5.48,3.87-7.25,6.73-1.77,2.86-2.65,6.11-2.65,9.75v51.09h-12.4Z" style="fill:#1c5b44;"/><path d="m1613.03,82.46v48.56h-12.4V50.3h11.98v12.61h1.05c1.89-4.1,4.76-7.4,8.62-9.91,3.85-2.5,8.83-3.76,14.93-3.76,5.47,0,10.25,1.11,14.35,3.34,4.1,2.23,7.29,5.59,9.56,10.09,2.28,4.5,3.42,10.19,3.42,17.05v51.3h-12.4v-50.45c0-6.34-1.65-11.29-4.94-14.85-3.29-3.56-7.81-5.33-13.56-5.33-3.96,0-7.49.86-10.59,2.58-3.1,1.72-5.54,4.22-7.33,7.52-1.79,3.29-2.68,7.29-2.68,11.98Z" style="fill:#1c5b44;"/><path d="m1711,132.92c-5.12,0-9.76-.97-13.93-2.92-4.17-1.94-7.48-4.76-9.93-8.46-2.45-3.7-3.68-8.17-3.68-13.43,0-4.62.91-8.38,2.73-11.27s4.26-5.16,7.31-6.81c3.05-1.65,6.42-2.88,10.12-3.71,3.7-.82,7.42-1.48,11.17-1.97,4.91-.63,8.89-1.11,11.96-1.45,3.07-.33,5.31-.9,6.73-1.71,1.42-.81,2.13-2.21,2.13-4.2v-.42c0-5.19-1.41-9.21-4.23-12.09-2.82-2.87-7.09-4.31-12.8-4.31s-10.56,1.3-13.93,3.89c-3.36,2.59-5.73,5.36-7.1,8.3l-11.77-4.2c2.1-4.91,4.91-8.73,8.44-11.48,3.52-2.75,7.38-4.68,11.56-5.78,4.19-1.1,8.31-1.66,12.38-1.66,2.59,0,5.58.31,8.96.92,3.38.61,6.66,1.87,9.83,3.76,3.17,1.89,5.81,4.75,7.91,8.57,2.1,3.82,3.15,8.93,3.15,15.35v53.19h-12.4v-10.93h-.63c-.84,1.75-2.24,3.63-4.21,5.62-1.96,2-4.57,3.7-7.83,5.1-3.26,1.4-7.24,2.1-11.93,2.1Zm1.89-11.14c4.91,0,9.05-.96,12.43-2.89,3.38-1.93,5.94-4.41,7.67-7.46s2.6-6.25,2.6-9.62v-11.35c-.53.63-1.67,1.2-3.44,1.71-1.77.51-3.8.95-6.1,1.31-2.29.37-4.52.68-6.67.95-2.16.26-3.9.48-5.23.66-3.22.42-6.23,1.1-9.01,2.02-2.79.93-5.03,2.31-6.73,4.15-1.7,1.84-2.55,4.34-2.55,7.49,0,4.31,1.6,7.56,4.81,9.75,3.21,2.19,7.28,3.28,12.22,3.28Z" style="fill:#1c5b44;"/><path d="m1805.81,50.3v10.51h-41.83v-10.51h41.83Zm-29.64-19.34h12.4v76.94c0,3.5.52,6.12,1.55,7.86,1.03,1.73,2.36,2.89,3.99,3.47,1.63.58,3.35.87,5.18.87,1.37,0,2.49-.08,3.36-.24s1.58-.29,2.1-.39l2.52,11.14c-.84.32-2.01.64-3.52.97-1.51.33-3.42.5-5.73.5-3.5,0-6.93-.75-10.27-2.26-3.35-1.51-6.12-3.8-8.3-6.88-2.19-3.08-3.28-6.97-3.28-11.67V30.96Z" style="fill:#1c5b44;"/><path d="m1830.83,36.84c-2.42,0-4.49-.82-6.23-2.47-1.73-1.65-2.6-3.63-2.6-5.94s.87-4.29,2.6-5.94c1.73-1.65,3.81-2.47,6.23-2.47s4.49.82,6.23,2.47c1.73,1.65,2.6,3.63,2.6,5.94s-.87,4.29-2.6,5.94c-1.73,1.65-3.81,2.47-6.23,2.47Zm-6.31,94.18V50.3h12.4v80.73h-12.4Z" style="fill:#1c5b44;"/><path d="m1892.42,132.71c-7.29,0-13.67-1.73-19.16-5.2-5.48-3.47-9.76-8.32-12.82-14.56-3.07-6.24-4.6-13.52-4.6-21.86s1.53-15.75,4.6-22.02c3.07-6.27,7.34-11.14,12.82-14.61,5.48-3.47,11.87-5.2,19.16-5.2s13.67,1.73,19.16,5.2c5.48,3.47,9.76,8.34,12.82,14.61,3.07,6.27,4.6,13.61,4.6,22.02s-1.53,15.63-4.6,21.86c-3.07,6.24-7.34,11.09-12.82,14.56-5.48,3.47-11.87,5.2-19.16,5.2Zm0-11.14c5.54,0,10.09-1.42,13.67-4.26s6.22-6.57,7.94-11.19c1.72-4.62,2.58-9.63,2.58-15.03s-.86-10.42-2.58-15.08c-1.72-4.66-4.36-8.43-7.94-11.3-3.57-2.87-8.13-4.31-13.67-4.31s-10.09,1.44-13.66,4.31c-3.57,2.87-6.22,6.64-7.94,11.3-1.72,4.66-2.58,9.69-2.58,15.08s.86,10.41,2.58,15.03,4.36,8.36,7.94,11.19c3.57,2.84,8.13,4.26,13.66,4.26Z" style="fill:#1c5b44;"/><path d="m1960.33,82.46v48.56h-12.4V50.3h11.98v12.61h1.05c1.89-4.1,4.76-7.4,8.62-9.91,3.85-2.5,8.83-3.76,14.93-3.76,5.47,0,10.25,1.11,14.35,3.34,4.1,2.23,7.29,5.59,9.56,10.09,2.28,4.5,3.42,10.19,3.42,17.05v51.3h-12.4v-50.45c0-6.34-1.65-11.29-4.94-14.85-3.29-3.56-7.81-5.33-13.56-5.33-3.96,0-7.49.86-10.59,2.58-3.1,1.72-5.54,4.22-7.33,7.52-1.79,3.29-2.68,7.29-2.68,11.98Z" style="fill:#1c5b44;"/><path d="m2058.29,132.92c-5.12,0-9.76-.97-13.93-2.92-4.17-1.94-7.48-4.76-9.93-8.46-2.45-3.7-3.68-8.17-3.68-13.43,0-4.62.91-8.38,2.73-11.27s4.26-5.16,7.31-6.81c3.05-1.65,6.42-2.88,10.12-3.71,3.7-.82,7.42-1.48,11.17-1.97,4.91-.63,8.89-1.11,11.96-1.45,3.07-.33,5.31-.9,6.73-1.71,1.42-.81,2.13-2.21,2.13-4.2v-.42c0-5.19-1.41-9.21-4.23-12.09-2.82-2.87-7.09-4.31-12.8-4.31s-10.56,1.3-13.93,3.89c-3.36,2.59-5.73,5.36-7.1,8.3l-11.77-4.2c2.1-4.91,4.91-8.73,8.44-11.48,3.52-2.75,7.38-4.68,11.56-5.78,4.19-1.1,8.31-1.66,12.38-1.66,2.59,0,5.58.31,8.96.92,3.38.61,6.66,1.87,9.83,3.76,3.17,1.89,5.81,4.75,7.91,8.57,2.1,3.82,3.15,8.93,3.15,15.35v53.19h-12.4v-10.93h-.63c-.84,1.75-2.24,3.63-4.21,5.62-1.96,2-4.57,3.7-7.83,5.1-3.26,1.4-7.24,2.1-11.93,2.1Zm1.89-11.14c4.91,0,9.05-.96,12.43-2.89,3.38-1.93,5.94-4.41,7.67-7.46s2.6-6.25,2.6-9.62v-11.35c-.53.63-1.67,1.2-3.44,1.71-1.77.51-3.8.95-6.1,1.31-2.29.37-4.52.68-6.67.95-2.16.26-3.9.48-5.23.66-3.22.42-6.23,1.1-9.01,2.02-2.79.93-5.03,2.31-6.73,4.15-1.7,1.84-2.55,4.34-2.55,7.49,0,4.31,1.6,7.56,4.81,9.75,3.21,2.19,7.28,3.28,12.22,3.28Z" style="fill:#1c5b44;"/><path d="m2130.4,23.39v107.64h-12.4V23.39h12.4Z" style="fill:#1c5b44;"/><path d="m1315.56,297.02h-33.22v-107.64h34.69c10.44,0,19.38,2.15,26.8,6.44,7.43,4.29,13.12,10.44,17.08,18.45,3.96,8.01,5.94,17.58,5.94,28.72s-2,20.86-5.99,28.93-9.81,14.28-17.45,18.6c-7.64,4.33-16.92,6.49-27.86,6.49Zm-20.18-11.56h19.34c8.9,0,16.27-1.72,22.13-5.15s10.21-8.32,13.09-14.66,4.31-13.89,4.31-22.65-1.42-16.18-4.26-22.47c-2.84-6.29-7.08-11.12-12.72-14.51-5.64-3.38-12.67-5.07-21.08-5.07h-20.81v84.51Z" style="fill:#1c5b44;"/><path d="m1437.91,264.02v-47.72h12.4v80.73h-12.4v-13.67h-.84c-1.89,4.1-4.84,7.58-8.83,10.43-3.99,2.86-9.04,4.28-15.14,4.28-5.05,0-9.53-1.11-13.46-3.34-3.92-2.22-7.01-5.59-9.25-10.09-2.24-4.5-3.36-10.19-3.36-17.05v-51.3h12.4v50.45c0,5.89,1.66,10.58,4.97,14.08,3.31,3.5,7.54,5.26,12.69,5.26,3.08,0,6.23-.79,9.43-2.37s5.9-3.99,8.09-7.25c2.19-3.26,3.29-7.41,3.29-12.46Z" style="fill:#1c5b44;"/><path d="m1485.43,248.46v48.56h-12.4v-80.73h11.98v12.61h1.05c1.89-4.1,4.76-7.4,8.62-9.91,3.85-2.5,8.83-3.76,14.93-3.76,5.47,0,10.25,1.11,14.35,3.34,4.1,2.23,7.29,5.59,9.56,10.09,2.28,4.5,3.42,10.19,3.42,17.05v51.3h-12.4v-50.45c0-6.34-1.65-11.29-4.94-14.85-3.29-3.56-7.81-5.33-13.56-5.33-3.96,0-7.49.86-10.59,2.58-3.1,1.72-5.54,4.22-7.33,7.52-1.79,3.29-2.68,7.29-2.68,11.98Z" style="fill:#1c5b44;"/><path d="m1572.04,248.46v48.56h-12.4v-107.64h12.4v39.52h1.05c1.89-4.17,4.74-7.49,8.54-9.96,3.8-2.47,8.87-3.71,15.21-3.71,5.5,0,10.32,1.1,14.45,3.28,4.13,2.19,7.35,5.54,9.64,10.04,2.29,4.5,3.44,10.22,3.44,17.16v51.3h-12.4v-50.45c0-6.41-1.66-11.38-4.97-14.9-3.31-3.52-7.89-5.28-13.74-5.28-4.06,0-7.7.86-10.91,2.58-3.21,1.72-5.73,4.22-7.57,7.52-1.84,3.29-2.76,7.29-2.76,11.98Z" style="fill:#1c5b44;"/><path d="m1697.96,264.02v-47.72h12.4v80.73h-12.4v-13.67h-.84c-1.89,4.1-4.84,7.58-8.83,10.43-3.99,2.86-9.04,4.28-15.14,4.28-5.05,0-9.53-1.11-13.46-3.34-3.92-2.22-7.01-5.59-9.25-10.09-2.24-4.5-3.36-10.19-3.36-17.05v-51.3h12.4v50.45c0,5.89,1.66,10.58,4.97,14.08,3.31,3.5,7.54,5.26,12.69,5.26,3.08,0,6.23-.79,9.43-2.37s5.9-3.99,8.09-7.25c2.19-3.26,3.29-7.41,3.29-12.46Z" style="fill:#1c5b44;"/><path d="m1756.83,298.92c-5.12,0-9.76-.97-13.93-2.92-4.17-1.95-7.48-4.76-9.93-8.46-2.45-3.7-3.68-8.17-3.68-13.43,0-4.62.91-8.38,2.73-11.27s4.26-5.16,7.31-6.81c3.05-1.65,6.42-2.88,10.12-3.71,3.7-.82,7.42-1.48,11.17-1.97,4.91-.63,8.89-1.11,11.96-1.45,3.07-.33,5.31-.9,6.73-1.71,1.42-.81,2.13-2.21,2.13-4.2v-.42c0-5.18-1.41-9.21-4.23-12.09-2.82-2.87-7.09-4.31-12.8-4.31s-10.56,1.3-13.93,3.89c-3.36,2.59-5.73,5.36-7.1,8.3l-11.77-4.2c2.1-4.91,4.91-8.73,8.44-11.48,3.52-2.75,7.38-4.68,11.56-5.78,4.19-1.1,8.31-1.66,12.38-1.66,2.59,0,5.58.31,8.96.92,3.38.61,6.66,1.87,9.83,3.76,3.17,1.89,5.81,4.75,7.91,8.57,2.1,3.82,3.15,8.93,3.15,15.35v53.19h-12.4v-10.93h-.63c-.84,1.75-2.24,3.63-4.21,5.62-1.96,2-4.57,3.7-7.83,5.1-3.26,1.4-7.24,2.1-11.93,2.1Zm1.89-11.14c4.91,0,9.05-.96,12.43-2.89,3.38-1.93,5.94-4.42,7.67-7.46,1.73-3.05,2.6-6.25,2.6-9.62v-11.35c-.53.63-1.67,1.2-3.44,1.71-1.77.51-3.8.95-6.1,1.31s-4.52.68-6.67.95c-2.16.26-3.9.48-5.23.66-3.22.42-6.23,1.1-9.01,2.02-2.79.93-5.03,2.31-6.73,4.15-1.7,1.84-2.55,4.34-2.55,7.49,0,4.31,1.6,7.56,4.81,9.75,3.21,2.19,7.28,3.29,12.22,3.29Z" style="fill:#1c5b44;"/><path d="m1828.94,248.46v48.56h-12.4v-80.73h11.98v12.61h1.05c1.89-4.1,4.76-7.4,8.62-9.91,3.85-2.5,8.83-3.76,14.93-3.76,5.47,0,10.25,1.11,14.35,3.34,4.1,2.23,7.29,5.59,9.56,10.09,2.28,4.5,3.42,10.19,3.42,17.05v51.3h-12.4v-50.45c0-6.34-1.65-11.29-4.94-14.85-3.29-3.56-7.81-5.33-13.56-5.33-3.96,0-7.49.86-10.59,2.58-3.1,1.72-5.54,4.22-7.33,7.52-1.79,3.29-2.68,7.29-2.68,11.98Z" style="fill:#1c5b44;"/><path d="m1935.73,328.98c-5.99,0-11.14-.76-15.45-2.29-4.31-1.52-7.89-3.52-10.75-5.99-2.86-2.47-5.12-5.11-6.81-7.91l9.88-6.94c1.12,1.47,2.54,3.16,4.26,5.07,1.72,1.91,4.07,3.57,7.07,4.99,3,1.42,6.93,2.13,11.8,2.13,6.52,0,11.9-1.58,16.13-4.73s6.36-8.09,6.36-14.82v-16.4h-1.05c-.91,1.47-2.2,3.28-3.86,5.44-1.66,2.15-4.05,4.06-7.15,5.73-3.1,1.67-7.28,2.5-12.54,2.5-6.52,0-12.36-1.54-17.53-4.62-5.17-3.08-9.25-7.57-12.25-13.45-3-5.89-4.49-13.03-4.49-21.44s1.45-15.48,4.36-21.63c2.91-6.15,6.95-10.91,12.14-14.3,5.18-3.38,11.18-5.07,17.97-5.07,5.25,0,9.43.87,12.53,2.6s5.48,3.7,7.15,5.89c1.66,2.19,2.95,3.99,3.86,5.39h1.26v-12.82h11.98v83.04c0,6.94-1.57,12.59-4.7,16.95-3.14,4.36-7.34,7.57-12.61,9.62s-11.13,3.07-17.58,3.07Zm-.42-44.36c4.98,0,9.18-1.14,12.61-3.42,3.43-2.28,6.04-5.55,7.83-9.83s2.68-9.39,2.68-15.35-.88-10.95-2.63-15.4c-1.75-4.45-4.35-7.94-7.78-10.46-3.43-2.52-7.67-3.78-12.72-3.78s-9.63,1.33-13.11,3.99c-3.49,2.66-6.1,6.24-7.83,10.72-1.73,4.49-2.6,9.46-2.6,14.93s.88,10.56,2.65,14.85c1.77,4.29,4.4,7.66,7.88,10.09s7.82,3.65,13.01,3.65Z" style="fill:#1c5b44;"/><path d="m1282.35,463.02v-107.64h36.37c8.44,0,15.35,1.52,20.73,4.55,5.38,3.03,9.36,7.12,11.96,12.27,2.59,5.15,3.89,10.9,3.89,17.24s-1.29,12.11-3.86,17.29-6.54,9.31-11.9,12.38c-5.36,3.07-12.23,4.6-20.6,4.6h-26.07v-11.56h25.65c5.78,0,10.42-1,13.93-3,3.5-2,6.05-4.7,7.65-8.12,1.59-3.42,2.39-7.28,2.39-11.59s-.8-8.16-2.39-11.56c-1.59-3.4-4.16-6.07-7.7-8.02-3.54-1.94-8.23-2.92-14.08-2.92h-22.92v96.07h-13.03Z" style="fill:#1c5b44;"/><path d="m1374.64,463.02v-80.73h11.98v12.19h.84c1.47-3.99,4.13-7.23,7.99-9.72,3.85-2.49,8.2-3.73,13.03-3.73.91,0,2.05.02,3.42.05,1.37.04,2.4.09,3.1.16v12.61c-.42-.1-1.38-.27-2.86-.5-1.49-.23-3.06-.34-4.7-.34-3.92,0-7.42.81-10.48,2.44-3.07,1.63-5.48,3.87-7.25,6.73-1.77,2.86-2.65,6.11-2.65,9.75v51.08h-12.4Z" style="fill:#1c5b44;"/><path d="m1459.99,464.71c-7.29,0-13.67-1.73-19.16-5.2-5.48-3.47-9.76-8.32-12.82-14.56-3.07-6.24-4.6-13.52-4.6-21.86s1.53-15.75,4.6-22.02c3.07-6.27,7.34-11.14,12.82-14.61,5.48-3.47,11.87-5.2,19.16-5.2s13.67,1.73,19.16,5.2c5.48,3.47,9.76,8.34,12.82,14.61,3.07,6.27,4.6,13.61,4.6,22.02s-1.53,15.63-4.6,21.86c-3.07,6.24-7.34,11.09-12.82,14.56-5.48,3.47-11.87,5.2-19.16,5.2Zm0-11.14c5.54,0,10.09-1.42,13.67-4.26,3.57-2.84,6.22-6.57,7.94-11.19,1.72-4.62,2.58-9.63,2.58-15.03s-.86-10.42-2.58-15.08c-1.72-4.66-4.36-8.43-7.94-11.3-3.57-2.87-8.13-4.31-13.67-4.31s-10.09,1.44-13.66,4.31c-3.57,2.87-6.22,6.64-7.94,11.3-1.72,4.66-2.58,9.69-2.58,15.08s.86,10.41,2.58,15.03,4.36,8.36,7.94,11.19c3.57,2.84,8.13,4.26,13.66,4.26Z" style="fill:#1c5b44;"/><path d="m1548.07,494.98c-5.99,0-11.14-.76-15.45-2.29-4.31-1.52-7.89-3.52-10.75-5.99-2.86-2.47-5.12-5.11-6.81-7.91l9.88-6.94c1.12,1.47,2.54,3.16,4.26,5.07,1.72,1.91,4.07,3.57,7.07,4.99,3,1.42,6.93,2.13,11.8,2.13,6.52,0,11.9-1.58,16.13-4.73s6.36-8.09,6.36-14.82v-16.4h-1.05c-.91,1.47-2.2,3.28-3.86,5.44-1.66,2.15-4.05,4.06-7.15,5.73-3.1,1.67-7.28,2.5-12.54,2.5-6.52,0-12.36-1.54-17.53-4.62-5.17-3.08-9.25-7.57-12.25-13.45-3-5.89-4.49-13.03-4.49-21.44s1.45-15.48,4.36-21.63c2.91-6.15,6.95-10.91,12.14-14.3,5.18-3.38,11.18-5.07,17.97-5.07,5.25,0,9.43.87,12.53,2.6s5.48,3.7,7.15,5.89,2.95,3.99,3.86,5.39h1.26v-12.82h11.98v83.04c0,6.94-1.57,12.59-4.7,16.95-3.14,4.36-7.34,7.57-12.61,9.62s-11.13,3.07-17.58,3.07Zm-.42-44.36c4.98,0,9.18-1.14,12.61-3.42,3.43-2.28,6.04-5.55,7.83-9.83s2.68-9.39,2.68-15.35-.88-10.95-2.63-15.4c-1.75-4.45-4.35-7.94-7.78-10.46-3.43-2.52-7.67-3.78-12.72-3.78s-9.63,1.33-13.11,4c-3.49,2.66-6.1,6.24-7.83,10.72-1.73,4.49-2.6,9.46-2.6,14.93s.88,10.56,2.65,14.85c1.77,4.29,4.4,7.66,7.88,10.09s7.82,3.65,13.01,3.65Z" style="fill:#1c5b44;"/><path d="m1605.68,463.02v-80.73h11.98v12.19h.84c1.47-3.99,4.13-7.23,7.99-9.72,3.85-2.49,8.2-3.73,13.03-3.73.91,0,2.05.02,3.42.05,1.37.04,2.4.09,3.1.16v12.61c-.42-.1-1.38-.27-2.86-.5-1.49-.23-3.06-.34-4.7-.34-3.92,0-7.42.81-10.48,2.44-3.07,1.63-5.48,3.87-7.25,6.73-1.77,2.86-2.65,6.11-2.65,9.75v51.08h-12.4Z" style="fill:#1c5b44;"/><path d="m1684.51,464.92c-5.12,0-9.76-.97-13.93-2.92-4.17-1.95-7.48-4.76-9.93-8.46-2.45-3.7-3.68-8.17-3.68-13.43,0-4.62.91-8.38,2.73-11.27s4.26-5.16,7.31-6.81c3.05-1.65,6.42-2.88,10.12-3.71,3.7-.82,7.42-1.48,11.17-1.97,4.91-.63,8.89-1.11,11.96-1.45,3.07-.33,5.31-.9,6.73-1.71,1.42-.81,2.13-2.21,2.13-4.2v-.42c0-5.18-1.41-9.21-4.23-12.09-2.82-2.87-7.09-4.31-12.8-4.31s-10.56,1.3-13.93,3.89c-3.36,2.59-5.73,5.36-7.1,8.3l-11.77-4.21c2.1-4.9,4.91-8.73,8.44-11.48,3.52-2.75,7.38-4.68,11.56-5.78,4.19-1.1,8.31-1.66,12.38-1.66,2.59,0,5.58.31,8.96.92,3.38.61,6.66,1.87,9.83,3.76,3.17,1.89,5.81,4.75,7.91,8.57,2.1,3.82,3.15,8.93,3.15,15.35v53.19h-12.4v-10.93h-.63c-.84,1.75-2.24,3.63-4.21,5.62-1.96,2-4.57,3.7-7.83,5.1-3.26,1.4-7.24,2.1-11.93,2.1Zm1.89-11.14c4.91,0,9.05-.96,12.43-2.89,3.38-1.93,5.94-4.42,7.67-7.46,1.73-3.05,2.6-6.25,2.6-9.62v-11.35c-.53.63-1.67,1.2-3.44,1.71-1.77.51-3.8.95-6.1,1.31s-4.52.68-6.67.95c-2.16.26-3.9.48-5.23.66-3.22.42-6.23,1.1-9.01,2.02-2.79.93-5.03,2.31-6.73,4.15-1.7,1.84-2.55,4.34-2.55,7.49,0,4.31,1.6,7.56,4.81,9.75,3.21,2.19,7.28,3.29,12.22,3.29Z" style="fill:#1c5b44;"/><path d="m1744.21,463.02v-80.73h11.98v12.61h1.05c1.68-4.31,4.4-7.67,8.15-10.07,3.75-2.4,8.25-3.6,13.51-3.6s9.77,1.2,13.32,3.6c3.56,2.4,6.33,5.76,8.33,10.07h.84c2.07-4.17,5.17-7.49,9.3-9.96,4.13-2.47,9.09-3.71,14.87-3.71,7.22,0,13.12,2.25,17.71,6.75,4.59,4.5,6.88,11.5,6.88,21v54.03h-12.4v-54.03c0-5.96-1.63-10.21-4.89-12.77-3.26-2.56-7.09-3.84-11.51-3.84-5.68,0-10.07,1.71-13.19,5.12-3.12,3.42-4.68,7.73-4.68,12.96v52.56h-12.61v-55.29c0-4.59-1.49-8.29-4.47-11.12-2.98-2.82-6.82-4.23-11.51-4.23-3.22,0-6.23.86-9.01,2.58-2.79,1.72-5.03,4.09-6.73,7.12-1.7,3.03-2.55,6.53-2.55,10.49v50.45h-12.4Z" style="fill:#1c5b44;"/><path d="m1872.87,463.02v-80.73h11.98v12.61h1.05c1.68-4.31,4.4-7.67,8.15-10.07,3.75-2.4,8.25-3.6,13.51-3.6s9.77,1.2,13.32,3.6c3.56,2.4,6.33,5.76,8.33,10.07h.84c2.07-4.17,5.17-7.49,9.3-9.96,4.13-2.47,9.09-3.71,14.87-3.71,7.22,0,13.12,2.25,17.71,6.75,4.59,4.5,6.88,11.5,6.88,21v54.03h-12.4v-54.03c0-5.96-1.63-10.21-4.89-12.77-3.26-2.56-7.09-3.84-11.51-3.84-5.68,0-10.07,1.71-13.19,5.12-3.12,3.42-4.68,7.73-4.68,12.96v52.56h-12.61v-55.29c0-4.59-1.49-8.29-4.47-11.12-2.98-2.82-6.82-4.23-11.51-4.23-3.22,0-6.23.86-9.01,2.58-2.79,1.72-5.03,4.09-6.73,7.12-1.7,3.03-2.55,6.53-2.55,10.49v50.45h-12.4Z" style="fill:#1c5b44;"/><path d="m2035.38,464.71c-7.78,0-14.48-1.73-20.1-5.18-5.62-3.45-9.95-8.29-12.98-14.51-3.03-6.22-4.55-13.46-4.55-21.73s1.51-15.56,4.55-21.89c3.03-6.32,7.27-11.26,12.72-14.82,5.45-3.56,11.82-5.33,19.1-5.33,4.2,0,8.36.7,12.46,2.1s7.83,3.67,11.19,6.81c3.36,3.14,6.04,7.28,8.04,12.43s3,11.49,3,19.03v5.26h-62.23v-10.72h49.61c0-4.55-.9-8.62-2.71-12.19-1.8-3.57-4.36-6.39-7.67-8.46-3.31-2.07-7.21-3.1-11.69-3.1-4.94,0-9.21,1.22-12.8,3.65s-6.35,5.6-8.28,9.49c-1.93,3.89-2.89,8.06-2.89,12.51v7.15c0,6.1,1.06,11.26,3.18,15.48,2.12,4.22,5.07,7.43,8.86,9.62,3.78,2.19,8.18,3.29,13.19,3.29,3.26,0,6.21-.46,8.86-1.39s4.93-2.33,6.86-4.21c1.93-1.87,3.42-4.21,4.47-7.02l11.98,3.36c-1.26,4.06-3.38,7.63-6.36,10.7-2.98,3.07-6.66,5.45-11.04,7.15-4.38,1.7-9.3,2.55-14.77,2.55Z" style="fill:#1c5b44;"/><path d="m50.37,854.02h-19.97c.84-8.88,1.37-17.54,1.58-25.99.21-8.45.32-17.44.32-26.95v-176.89c0-6.34-.11-12.47-.32-18.39-.21-5.91-.74-12.57-1.58-19.97,2.74.43,6.44.69,11.1.79,4.64.11,11.3.27,19.97.48,8.66.21,19.92.32,33.76.32h105.24c13.84,0,25.09-.1,33.76-.32,8.66-.21,15.27-.37,19.81-.48,4.54-.1,8.19-.37,10.94-.79-.21,7.4-.32,14.11-.32,20.13v189.09c0,9.51.05,18.5.16,26.95.1,8.45.37,17.12.79,25.99h-19.34v-18.07H50.37v24.09Zm195.91-250.43H50.37v210.49h195.91v-210.49Zm-97,150.89c-.43,3.38-.53,6.39-.32,9.04.21,2.64.52,5.34.95,8.08-5.92.43-12.47.95-19.65,1.58-7.19.63-14.53,1.38-22.03,2.22-7.5.85-14.96,1.74-22.35,2.7-7.4.95-14.27,2.06-20.61,3.33-.43-2.11-.74-3.8-.95-5.07-.21-1.27-.53-2.48-.95-3.65-.43-1.16-.95-2.43-1.59-3.8-.63-1.37-1.38-3.33-2.22-5.86,8.45,0,16.9-.21,25.36-.63,8.45-.42,16.59-1.05,24.41-1.9,7.81-.84,15.11-1.79,21.87-2.85,6.76-1.05,12.78-2.11,18.07-3.17Zm-37.41-96.68c-8.03,0-16.64.16-25.84.48-9.19.32-17.49.9-24.88,1.74v-18.7c7.4.85,15.69,1.43,24.88,1.74,9.19.32,17.8.47,25.84.47h42.16c-.63-7.39-1.22-13.68-1.74-18.86-.53-5.18-1.01-10.51-1.43-16.01,3.59,1.06,6.87,1.9,9.83,2.54,2.96.63,6.13.85,9.51.63,2.54-.21,4.07.05,4.6.79.53.74-.37,2.17-2.69,4.28-.85.85-1.43,2.17-1.74,3.96-.32,1.8-.47,4.81-.47,9.03v6.5c0,2.22.1,4.6.32,7.13h16.8c8.24,0,17.22-.16,26.95-.47,9.72-.32,18.07-.9,25.04-1.74v18.7c-6.97-.84-15.32-1.43-25.04-1.74-9.72-.32-18.7-.48-26.95-.48h-15.85c1.27,11.2,3.8,24.62,7.61,40.26,1.27,4.65,2.64,9.19,4.12,13.63,1.48,4.44,3.06,8.77,4.76,13,4.65-8.66,8.4-17.01,11.25-25.04,2.85-8.03,5.33-17.22,7.45-27.58,5.49,4.02,11.52,6.87,18.07,8.56,2.74.85,4.07,1.85,3.96,3.01-.11,1.16-1.32,2.27-3.65,3.33-.85.43-2.22,1.85-4.12,4.28-1.9,2.43-4.02,6.5-6.34,12.2-2.96,7.4-5.97,14.22-9.03,20.45-3.07,6.24-6.39,12.42-9.99,18.54,4.44,8.67,8.13,15.27,11.1,19.81,2.96,4.55,6.23,8.72,9.83,12.52,1.9,2.12,3.65,3.6,5.23,4.44,1.59.85,2.96.63,4.12-.63,1.16-1.27,2.01-3.69,2.54-7.29.52-3.59.79-8.77.79-15.53,3.38,3.8,6.07,6.39,8.08,7.77,2.01,1.38,4.49,2.59,7.45,3.65-1.9,9.3-4.07,16.48-6.5,21.56-2.43,5.07-5.02,8.56-7.77,10.46-2.75,1.9-5.44,2.54-8.08,1.9-2.64-.63-5.13-1.9-7.45-3.8-5.71-4.86-10.99-10.19-15.85-16.01-4.86-5.81-9.4-12.94-13.63-21.4-3.17,5.28-6.02,9.83-8.56,13.63-2.54,3.8-5.07,7.24-7.61,10.3-2.54,3.07-5.18,6.02-7.93,8.88-2.75,2.85-6.02,5.97-9.83,9.35-3.6-2.96-6.45-5.02-8.56-6.18-2.12-1.16-4.97-2.27-8.56-3.33,8.66-6.34,16.27-13.21,22.82-20.6,6.55-7.4,13.21-16.8,19.97-28.21-5.28-12.05-9.72-25.15-13.31-39.31-3.6-14.16-6.24-29.69-7.93-46.6h-43.75Zm32.33,83.05c-2.33-.21-4.55-.37-6.66-.48-2.12-.1-4.49-.21-7.13-.32-2.64-.1-5.6-.16-8.88-.16h-11.57c-8.88,0-16.06.05-21.55.16-5.5.11-10.46.37-14.9.79.42-3.59.74-8.82.95-15.69.21-6.87.32-13.05.32-18.54s-.11-11.46-.32-17.91c-.21-6.44-.53-11.46-.95-15.06,4.44.43,9.4.69,14.9.79,5.49.11,12.68.16,21.55.16h11.57c3.28,0,6.23-.05,8.88-.16,2.64-.1,5.02-.21,7.13-.32,2.11-.1,4.33-.26,6.66-.48-.43,4.44-.74,9.41-.95,14.9-.21,5.5-.32,11.52-.32,18.07s.1,12.68.32,19.02c.21,6.34.53,11.41.95,15.22Zm-16.48-53.26h-38.04v38.67h38.04v-38.67Zm85.27-46.6c-2.54-2.96-4.71-5.55-6.5-7.77-1.8-2.22-3.65-4.28-5.55-6.18-1.9-1.9-3.91-3.8-6.02-5.71-2.12-1.9-4.65-4.12-7.61-6.66l10.78-9.51c3.38,2.96,6.23,5.5,8.56,7.61,2.32,2.12,4.44,4.12,6.34,6.02s3.65,3.8,5.23,5.71c1.59,1.9,3.33,4.02,5.23,6.34l-10.46,10.14Z" style="fill:#1c5b44;"/><path d="m503.05,611.2c-2.75,4.86-5.34,9.14-7.77,12.84-2.43,3.7-4.87,7.08-7.29,10.14-2.43,3.07-4.97,5.97-7.61,8.72-2.64,2.75-5.44,5.6-8.4,8.56-2.33-1.9-4.44-3.43-6.34-4.6-1.9-1.16-5.18-2.48-9.83-3.96,6.76-4.86,12.47-9.93,17.12-15.22,4.65-5.28,9.3-11.2,13.95-17.75,4.22-6.13,7.66-12.47,10.3-19.02,2.64-6.55,5.02-14.37,7.13-23.46,3.8,1.9,7.08,3.33,9.83,4.28,2.74.95,5.49,1.64,8.24,2.06,2.96.43,4.54,1.48,4.75,3.17.21,1.69-.85,2.96-3.17,3.8-1.27.43-2.75,1.54-4.44,3.33-1.69,1.8-4.55,6.18-8.56,13.16h27.26c3.8,0,7.71-.21,11.73-.63,4.01-.42,7.61-.84,10.78-1.27-5.92,19.87-12.68,37.25-20.29,52.15s-17.23,28.58-28.85,41.05c2.96.43,5.87.69,8.72.79,2.85.11,6.13.27,9.83.48,3.7.21,8.03.32,13,.32h17.91c11.62,0,20.81-.1,27.58-.32,6.76-.21,13.1-.52,19.02-.95-3.8-4.22-6.97-8.08-9.51-11.57-2.54-3.49-4.97-7.13-7.29-10.94-2.96-4.65-5.55-9.4-7.77-14.26-2.22-4.86-4.28-10.19-6.18-16.01-1.9-5.81-3.7-12.31-5.39-19.5-1.7-7.18-3.49-15.64-5.39-25.36h52.94c3.59,0,7.82-.21,12.68-.63,4.86-.42,8.98-.84,12.36-1.27-3.17,8.24-6.34,15.69-9.51,22.35-3.17,6.66-6.34,12.73-9.51,18.23-3.17,5.5-6.45,10.67-9.83,15.53-3.38,4.86-7.08,9.72-11.1,14.58,4.01,5.5,7.87,10.25,11.57,14.26,3.7,4.02,7.61,7.66,11.73,10.94,4.12,3.28,8.82,6.45,14.11,9.51,5.28,3.07,11.62,6.29,19.02,9.67-2.75,2.12-5.29,4.49-7.61,7.13-2.33,2.64-4.76,6.08-7.29,10.3-7.19-5.49-13.42-10.46-18.7-14.9-5.29-4.44-9.83-8.56-13.63-12.36v11.73c-2.75-.21-5.6-.42-8.56-.63-2.96-.21-6.39-.37-10.3-.48-3.91-.1-8.56-.16-13.95-.16h-41.37c-5.5,0-10.04.05-13.63.16-3.6.11-6.55.27-8.88.48-2.33.21-4.86.43-7.61.63v-14.9c-9.72,10.14-21.24,20.08-34.55,29.8-2.33-2.54-4.65-4.6-6.97-6.18-2.33-1.59-5.6-3.43-9.83-5.55,6.13,12.26,9.19,24.73,9.19,37.41,0,7.61-.69,14.06-2.06,19.34-1.38,5.29-3.8,9.83-7.29,13.63-3.49,3.8-8.19,6.87-14.11,9.19-5.92,2.33-13.42,4.23-22.51,5.71-1.06-8.66-4.33-16.59-9.83-23.78,15,1.27,25.2-.05,30.59-3.96,5.39-3.91,8.08-11.14,8.08-21.71,0-5.07-.69-10.51-2.06-16.33-1.38-5.81-3.54-11.73-6.5-17.75-2.96-6.02-6.66-11.89-11.1-17.59-4.44-5.71-9.83-10.99-16.17-15.85,3.38-7.18,6.29-13.58,8.72-19.18,2.43-5.6,4.76-11.2,6.97-16.8,2.22-5.6,4.38-11.67,6.5-18.23,2.11-6.55,4.65-14.26,7.61-23.14h-38.67v208.43c0,6.24.1,11.89.32,16.96.21,5.07.48,9.88.79,14.42.32,4.54.68,9.46,1.11,14.74h-23.78c.63-5.71,1.16-11.09,1.59-16.17.42-5.07.74-10.3.95-15.69.21-5.39.37-10.99.47-16.8.11-5.81.16-12.31.16-19.5v-161.67c0-3.17-.05-6.6-.16-10.3-.11-3.69-.27-7.39-.47-11.09-.21-3.7-.48-7.29-.79-10.78-.32-3.49-.58-6.6-.79-9.35,7.4.43,14.85.74,22.35.95,7.5.21,14.95.32,22.35.32,8.45,0,15.38-.1,20.76-.32,5.39-.21,11.25-.63,17.59-1.27-2.54,8.24-5.02,16.06-7.45,23.46-2.43,7.4-5.02,14.69-7.77,21.87-2.75,7.19-5.66,14.48-8.72,21.87-3.07,7.4-6.5,15.22-10.3,23.46,5.91,6.77,10.72,12.89,14.42,18.39,3.7,5.5,6.92,10.99,9.67,16.48,5.91-3.17,12.52-7.4,19.81-12.68,7.29-5.28,13.89-10.67,19.81-16.17-4.23-4.22-8.35-7.77-12.36-10.62-4.02-2.85-8.24-5.55-12.68-8.08l10.46-10.14c4.86,3.38,9.3,6.45,13.31,9.19,4.01,2.75,7.82,5.6,11.41,8.56,2.54-2.96,4.86-5.86,6.97-8.72,2.11-2.85,4.01-5.65,5.71-8.4-3.38-2.96-7.08-5.55-11.1-7.77-4.02-2.22-8.45-4.38-13.31-6.5l7.61-11.09c4.01,2.33,8.03,4.6,12.05,6.82,4.01,2.22,7.81,4.49,11.41,6.82,2.32-4.44,4.44-8.98,6.34-13.63,1.9-4.65,3.8-9.72,5.71-15.22h-35.5Zm16.8,171.81c-2.33.43-4.39,1.54-6.18,3.33-1.8,1.8-4.6,5.13-8.4,9.99-2.12,2.54-4.18,5.07-6.18,7.61-2.01,2.54-4.39,5.13-7.13,7.77-2.75,2.65-6.02,5.55-9.83,8.72s-8.46,6.66-13.95,10.46c-2.75-2.75-5.07-4.75-6.97-6.02-1.9-1.27-5.18-2.85-9.83-4.75,13.52-8.24,24.41-16.48,32.65-24.73s15.74-17.64,22.51-28.21c2.54,2.33,4.96,4.07,7.29,5.23,2.32,1.16,4.23,1.96,5.71,2.38,2.32.63,3.54,2.06,3.64,4.28.11,2.22-1,3.54-3.33,3.96Zm16.48-31.07c-10.78,0-20.87.21-30.27.63-9.41.43-16.96.95-22.67,1.58v-19.34c2.96.43,6.44.79,10.46,1.11,4.01.32,9.08.58,15.22.79,6.13.21,13.58.37,22.35.48,8.77.11,19.5.16,32.18.16,23.03,0,40.73-.26,53.1-.79,12.36-.53,21.29-1.11,26.79-1.74v19.34c-5.5-.63-13-1.16-22.51-1.58-9.51-.42-19.55-.63-30.12-.63h-21.24v73.23c0,5.07-.58,9.24-1.74,12.52-1.16,3.27-3.49,5.86-6.97,7.77-3.49,1.9-8.35,3.22-14.58,3.96-6.24.74-14.53,1.11-24.88,1.11-.21-2.12-.43-3.96-.63-5.55-.21-1.58-.63-3.07-1.27-4.44-.63-1.38-1.43-2.91-2.38-4.6-.95-1.69-2.17-3.8-3.65-6.34,8.24,1.27,14.79,2.06,19.65,2.38,4.86.32,8.61.05,11.25-.79,2.64-.85,4.33-2.22,5.07-4.12.74-1.9,1.11-4.44,1.11-7.61v-67.52h-14.27Zm61.18-107.15c2.74-3.38,5.12-6.6,7.13-9.67,2.01-3.06,3.91-6.13,5.71-9.19,1.79-3.06,3.38-6.23,4.75-9.51,1.37-3.27,2.8-7.02,4.28-11.25h-34.87c1.69,8.46,3.43,15.59,5.23,21.4,1.79,5.81,4.38,11.89,7.77,18.23Zm35.19,183.23c-3.17-5.07-6.23-9.67-9.19-13.79-2.96-4.12-6.08-8.08-9.35-11.89-3.28-3.8-6.93-7.77-10.94-11.89-4.02-4.12-8.77-8.72-14.27-13.79l12.36-10.14c5.71,5.29,10.62,9.83,14.74,13.63,4.12,3.8,7.87,7.5,11.25,11.1,3.38,3.6,6.66,7.24,9.83,10.94,3.17,3.7,6.66,8.08,10.46,13.16l-14.9,12.68Z" style="fill:#1c5b44;"/><path d="m849.53,605.49c6.55,0,13.42-.1,20.6-.32,7.18-.21,14.16-.42,20.92-.63,6.76-.21,12.89-.48,18.39-.79,5.49-.32,9.83-.68,13-1.11v19.02c-3.6-.21-7.88-.47-12.84-.79-4.97-.32-10.89-.58-17.75-.79-6.87-.21-14.85-.37-23.93-.47-9.09-.1-19.55-.16-31.38-.16-6.97,0-14.69.11-23.14.32-8.46.21-16.8.53-25.04.95-8.24.43-15.8.85-22.67,1.27-6.87.43-12.1.74-15.69.95v-20.29c3.38.43,8.19.79,14.42,1.11,6.23.32,13.16.63,20.76.95s15.42.53,23.46.63c8.03.11,15.53.16,22.51.16-2.96-4.86-6.66-9.88-11.1-15.06-4.44-5.18-9.09-10.19-13.95-15.06l17.12-9.51c4.65,5.29,9.19,11.31,13.63,18.07,4.44,6.77,8.66,13.95,12.68,21.56Zm-2.22,166.43c10.78-1.69,21.24-3.43,31.38-5.23,10.14-1.79,19.65-3.85,28.53-6.18-1.27,2.96-2.06,6.29-2.38,9.99-.32,3.7-.27,7.24.16,10.62-9.51.85-18.97,1.74-28.37,2.7-9.41.95-19.18,2.06-29.32,3.33v36.14c0,4.65-.69,8.61-2.06,11.89-1.38,3.27-3.86,6.13-7.45,8.56-3.6,2.43-8.46,4.33-14.58,5.71-6.13,1.37-13.95,2.48-23.46,3.33-.85-4.86-1.85-8.93-3.01-12.2-1.16-3.28-3.22-6.92-6.18-10.94,8.24,1.05,14.84,1.63,19.81,1.74,4.96.1,8.77-.27,11.41-1.11,2.64-.85,4.38-2.12,5.23-3.8.84-1.69,1.27-3.8,1.27-6.34v-30.43c-10.99,1.48-22.56,3.12-34.71,4.91-12.15,1.8-25.2,3.86-39.15,6.18.21-3.59,0-6.97-.63-10.14-.63-3.17-1.8-6.97-3.49-11.41,12.05,0,24.67-.42,37.88-1.27,13.21-.84,26.57-2.11,40.1-3.8v-24.09l35.82-19.97h-63.08c-16.7,0-31.7.63-45.01,1.9v-18.07c5.07.21,10.09.43,15.06.63,4.96.21,10.25.37,15.85.48,5.6.11,11.62.21,18.07.32,6.44.11,13.79.16,22.03.16h22.35c6.66,0,12.84-.05,18.54-.16,5.71-.1,11.14-.26,16.33-.48,5.18-.21,10.3-.42,15.38-.63v16.17c-8.88,1.69-17.02,4.86-24.41,9.51l-27.9,17.75v14.27Zm48.5-78.3c-8.67-.42-17.81-.74-27.42-.95-9.62-.21-21.4-.32-35.35-.32h-20.13c-5.81,0-11.09.11-15.85.32-4.75.21-9.14.43-13.15.63-4.02.21-8.04.43-12.05.63.84-5.07,1.37-9.46,1.59-13.16.21-3.7.32-8.82.32-15.38s-.11-11.46-.32-15.37c-.21-3.91-.74-8.4-1.59-13.47,8.88.63,18.07,1.11,27.58,1.43,9.51.32,20.92.48,34.23.48s25.31-.16,35.98-.48c10.67-.32,19.39-.79,26.15-1.43-.43,5.92-.69,11.05-.79,15.38-.11,4.33-.16,8.83-.16,13.47,0,5.29.05,10.09.16,14.42.1,4.33.37,8.93.79,13.79Zm-17.44-41.53h-88.12v26.63h88.12v-26.63Zm68.16-14.9c-3.38,8.88-7.35,17.7-11.89,26.47-4.55,8.77-9.56,17.07-15.06,24.88-2.33-2.32-5.34-4.44-9.04-6.34-3.7-1.9-7.35-3.27-10.94-4.12,6.55-7.4,12.31-14.9,17.28-22.51,4.96-7.61,9.3-15.85,13-24.73,3.69-8.88,6.81-18.7,9.35-29.48,2.54-10.78,4.64-22.93,6.34-36.46,4.01,2.33,7.71,3.96,11.09,4.91,3.38.95,7.08,1.54,11.1,1.74,2.96.21,4.49,1.16,4.6,2.85.11,1.69-1.32,3.49-4.28,5.39-1.27.85-3.12,4.33-5.55,10.46-2.43,6.13-5.97,16.7-10.62,31.7h43.11c6.97,0,13.95-.21,20.92-.63,6.97-.42,13.42-.95,19.34-1.58v19.65c-4.23-.42-8.88-.79-13.95-1.11-5.07-.32-10.36-.58-15.85-.79-.43,17.96-1.01,34.08-1.74,48.34-.74,14.26-1.9,27.16-3.49,38.67-1.58,11.52-3.7,21.82-6.34,30.91-2.64,9.09-5.87,17.33-9.67,24.73,7.39,9.72,15.85,18.44,25.36,26.15,9.51,7.72,20.39,14.32,32.65,19.81-3.8,2.32-6.97,5.23-9.51,8.72-2.54,3.49-4.75,7.02-6.66,10.62-20.71-13.74-38.15-30.01-52.3-48.82-7.82,9.94-17.49,19.08-29.01,27.42-11.52,8.35-25.63,17.38-42.32,27.1-2.54-4.02-5.23-7.29-8.08-9.83-2.85-2.54-6.82-4.97-11.89-7.29,19.65-9.51,35.93-18.28,48.82-26.31,12.89-8.03,23.35-17.22,31.38-27.58-8.03-13.31-14.9-27.84-20.61-43.59-5.71-15.74-10.36-33.23-13.95-52.46l16.48-6.02c2.74,16.06,6.39,31.22,10.94,45.49,4.54,14.26,10.41,27.53,17.59,39.78,3.17-6.55,5.76-13.95,7.77-22.19,2.01-8.24,3.54-17.44,4.6-27.58,1.05-10.14,1.69-21.5,1.9-34.08.21-12.57.21-26.68,0-42.32h-40.89Z" style="fill:#1c5b44;"/><path d="m1191.57,661.28c7.4-10.14,13.63-19.23,18.7-27.26,5.07-8.03,8.56-14.69,10.46-19.97,3.38,2.96,6.34,5.23,8.88,6.82,2.54,1.58,5.91,3.22,10.14,4.91,1.69.63,2.32,1.54,1.9,2.7-.43,1.16-1.69,2.06-3.8,2.69-1.06.43-2.54,1.38-4.44,2.85-1.9,1.48-4.6,4.07-8.08,7.77-3.49,3.7-7.98,8.77-13.47,15.22-5.5,6.45-12.26,14.74-20.29,24.88,0,12.05-.27,23.35-.79,33.92-.53,10.57-1.54,20.71-3.01,30.43,10.14,7.4,19.54,14.85,28.21,22.35,8.66,7.5,16.59,14.85,23.78,22.03l-16.48,15.53c-4.23-6.97-9.3-13.84-15.22-20.61-5.92-6.76-13.63-14.37-23.14-22.82-3.6,15.43-8.51,30.07-14.74,43.9-6.24,13.84-14.64,28.37-25.2,43.59-3.17-2.75-6.39-4.91-9.67-6.5-3.28-1.58-6.92-2.91-10.94-3.96,8.66-9.51,15.85-18.86,21.56-28.05,5.71-9.19,10.35-18.81,13.95-28.85,3.59-10.04,6.34-20.71,8.24-32.02,1.9-11.3,3.38-23.82,4.44-37.56.63-9.51,1.11-20.81,1.43-33.92.32-13.1.37-26.42.16-39.94-.21-13.52-.74-26.36-1.59-38.52-.85-12.15-1.9-21.92-3.17-29.32,4.86.85,9.14,1.38,12.84,1.58,3.7.21,7.77.21,12.21,0,2.32-.21,3.7.48,4.12,2.06.42,1.58-.43,3.44-2.54,5.55-.85.85-1.59,2.38-2.22,4.6-.63,2.22-1.11,6.18-1.43,11.89s-.53,13.63-.63,23.77c-.11,10.14-.16,23.57-.16,40.26Zm-38.67-26.31c-.43,15.01-1.32,28.85-2.69,41.53-1.38,12.68-3.65,26.1-6.82,40.26l-19.02-2.54c2.11-6.76,3.85-13.21,5.23-19.34,1.37-6.13,2.48-12.31,3.33-18.54.84-6.23,1.37-12.84,1.59-19.81.21-6.97.32-14.58.32-22.82l18.07,1.27Zm155.01,101.44c-7.4,0-14.21.05-20.45.16-6.24.11-12.2.21-17.91.32-5.71.11-11.2.32-16.48.63-5.29.32-10.78.69-16.48,1.11v-18.7c6.34.43,12.47.79,18.38,1.11,5.91.32,12.05.53,18.39.63,6.34.11,13.15.21,20.45.32,7.29.11,15.48.16,24.57.16h28.53c7.61,0,14.42-.1,20.45-.32,6.02-.21,11.57-.48,16.64-.79s10.78-.68,17.12-1.11v18.7c-5.92-.42-11.31-.79-16.17-1.11-4.87-.32-9.99-.53-15.38-.63-5.39-.1-11.47-.21-18.23-.32-6.77-.1-14.9-.16-24.41-.16v33.28c7.61,0,14.16-.05,19.65-.16,5.49-.1,10.46-.21,14.9-.32,4.44-.1,8.66-.32,12.68-.63,4.01-.32,8.45-.68,13.31-1.11v19.02c-4.86-.42-9.3-.79-13.31-1.11-4.02-.32-8.24-.53-12.68-.63-4.44-.1-9.41-.21-14.9-.32-5.5-.1-12.05-.16-19.65-.16v38.04c11.83,0,21.82-.05,29.96-.16,8.13-.1,15.38-.21,21.71-.32,6.34-.1,12.41-.32,18.23-.63,5.81-.32,12.21-.79,19.18-1.43v19.65c-7.61-.63-14.48-1.11-20.61-1.43-6.13-.32-12.73-.53-19.81-.63-7.08-.11-15.27-.21-24.57-.32-9.3-.11-21.03-.16-35.19-.16-11.21,0-21.19.05-29.96.16-8.77.1-17.07.26-24.88.48-7.82.21-15.32.48-22.51.79-7.19.32-14.58.68-22.19,1.11v-19.65c6.97.43,13.84.79,20.61,1.11,6.76.32,13.73.58,20.92.79,7.18.21,14.84.37,22.98.48,8.13.11,17.17.16,27.1.16v-38.04c-6.13,0-11.78.05-16.96.16-5.18.11-10.14.21-14.9.32-4.75.11-9.4.32-13.95.63-4.55.32-9.14.69-13.79,1.11v-19.02c4.65.43,9.24.79,13.79,1.11,4.54.32,9.19.53,13.95.63,4.76.11,9.72.21,14.9.32,5.18.11,10.83.16,16.96.16v-33.28Zm-21.24-137.9c4.44-6.13,7.92-11.99,10.46-17.59,2.54-5.6,4.33-11.99,5.39-19.18,3.8,1.9,7.77,3.6,11.89,5.07,4.12,1.48,7.34,2.43,9.67,2.85,3.59.43,5.55,1.69,5.87,3.8.32,2.12-1.32,3.91-4.91,5.39-1.9.85-4.33,2.75-7.29,5.71-2.96,2.96-6.87,7.61-11.73,13.95h35.82c26.2,0,43.32-.63,51.36-1.9-.43,3.38-.79,6.5-1.11,9.35-.32,2.85-.59,5.76-.79,8.72-.21,2.96-.32,6.13-.32,9.51v39.31c0,7.82.21,15.27.63,22.35.42,7.08.95,12.73,1.59,16.96-2.54-.63-5.39-1.11-8.56-1.43-3.17-.32-7.45-.58-12.84-.79-5.39-.21-12.42-.37-21.08-.48-8.67-.1-19.87-.16-33.6-.16s-25.57.05-34.24.16c-8.67.11-15.59.27-20.76.48-5.18.21-9.19.48-12.05.79-2.85.32-5.55.79-8.08,1.43.42-4.22.79-9.51,1.11-15.85.32-6.34.47-14.16.47-23.46v-28.21c0-8.24-.16-15.38-.47-21.4-.32-6.02-.69-11.78-1.11-17.28,6.97,1.27,21.87,1.9,44.7,1.9Zm84.96,14.9h-109.37v27.58h109.37v-27.58Zm0,43.11h-109.37v27.58h109.37v-27.58Z" style="fill:#1c5b44;"/><path d="m1549.15,613.73c-9.51.21-17.28.43-23.3.63-6.02.21-12.1.63-18.23,1.27v-20.29c3.38.43,6.81.74,10.3.95,3.49.21,7.24.43,11.25.63,4.01.21,8.45.32,13.31.32h33.44c4.33,0,8.13-.1,11.41-.32,3.27-.21,6.34-.42,9.19-.63,2.85-.21,6.07-.53,9.67-.95v20.29c-3.17-.21-5.97-.42-8.4-.63-2.43-.21-4.97-.42-7.61-.63-2.64-.21-5.71-.37-9.19-.47-3.49-.1-7.77-.16-12.84-.16v146.14c6.55-1.9,13.15-3.96,19.81-6.18,6.66-2.22,14.74-4.91,24.25-8.08-1.27,6.55-1.06,12.89.63,19.02-13.11,3.8-24.3,7.08-33.6,9.83-9.3,2.75-17.8,5.39-25.52,7.92-7.72,2.54-15.22,5.18-22.51,7.92-7.29,2.75-15.48,6.02-24.57,9.83-.43-3.59-1.38-7.92-2.85-13-1.48-5.07-3.28-9.51-5.39-13.31,20.07-2.74,36.98-5.81,50.72-9.19v-150.89Zm120.78,196.22c-2.75,0-5.92.74-9.51,2.22-3.6,1.48-7.82,4.02-12.68,7.61-6.13,4.22-13.84,8.92-23.14,14.11-9.3,5.18-21.13,10.94-35.5,17.28-1.69-3.8-3.38-6.82-5.07-9.03-1.69-2.22-4.86-4.91-9.51-8.08,10.78-3.17,19.97-6.18,27.58-9.03,7.61-2.85,14.37-5.91,20.29-9.19,5.91-3.27,11.36-7.02,16.32-11.25,4.96-4.23,10.2-9.4,15.69-15.53,2.32,2.75,4.49,4.91,6.5,6.5,2.01,1.58,4.49,3.22,7.45,4.91,4.22,2.33,6.29,4.49,6.18,6.5-.11,2.01-1.64,3.01-4.6,3.01Zm13-207.64c-8.46,0-15.85.05-22.19.16-6.34.11-12.16.21-17.44.32-5.29.11-10.36.32-15.22.63-4.86.32-9.94.69-15.21,1.11v-19.34c5.49.43,10.83.79,16.01,1.11,5.18.32,10.83.58,16.96.79,6.13.21,13.05.37,20.76.48,7.71.11,16.75.16,27.1.16s19.65-.05,27.9-.16c8.24-.1,15.79-.26,22.67-.48,6.87-.21,13.21-.48,19.02-.79,5.81-.32,11.46-.68,16.96-1.11v19.34c-5.07-.42-10.3-.79-15.69-1.11-5.39-.32-11.15-.53-17.28-.63-6.13-.1-12.89-.21-20.29-.32-7.4-.1-15.53-.16-24.41-.16-2.33,5.92-4.39,11.78-6.18,17.59-1.8,5.82-3.65,12.21-5.55,19.18h28.53c7.61,0,14.11-.1,19.49-.32,5.39-.21,10.04-.48,13.95-.79,3.91-.32,7.77-.68,11.57-1.11-.43,3.6-.79,8.03-1.11,13.31-.32,5.29-.48,10.99-.48,17.12v88.13c0,5.92.16,11.73.48,17.43.32,5.71.68,10.36,1.11,13.95-3.8-.63-7.5-1.11-11.1-1.43-3.6-.32-7.92-.53-13-.63-5.07-.1-11.25-.21-18.54-.32-7.29-.1-16.54-.16-27.74-.16h-26.94c-6.77,0-12.42.11-16.96.32-4.55.21-8.61.48-12.2.79-3.6.32-7.61.79-12.05,1.43,1.05-5.71,1.85-10.88,2.38-15.53.53-4.65.79-9.93.79-15.85v-88.13c0-6.13-.16-11.52-.47-16.17-.32-4.65-.79-9.4-1.43-14.26,2.74.43,5.44.74,8.08.95,2.64.21,5.49.43,8.56.63,3.06.21,6.66.37,10.78.48,4.12.11,9.24.16,15.37.16,1.9-4.44,3.43-8.24,4.6-11.41,1.16-3.17,2.22-6.07,3.17-8.72.95-2.64,1.79-5.23,2.54-7.77.74-2.54,1.63-5.49,2.7-8.88Zm61.18,51.67h-96.69v27.58h96.69v-27.58Zm0,42.16h-96.69v27.9h96.69v-27.9Zm0,42.79h-96.69v29.8h96.69v-29.8Zm32.02,110.63c-4.86-4.65-9.56-8.99-14.11-13-4.55-4.02-9.35-7.92-14.42-11.73-5.07-3.8-10.52-7.5-16.33-11.09-5.81-3.59-12.21-7.29-19.18-11.09l11.41-13.63c7.18,4.23,13.68,8.14,19.49,11.73,5.81,3.6,11.25,7.19,16.33,10.78,5.07,3.6,10.09,7.29,15.06,11.09,4.96,3.8,10.19,8.03,15.69,12.68l-13.95,14.27Z" style="fill:#1c5b44;"/><path d="m1936.21,820.73v32.33h-22.19c1.05-8.03,1.74-15.75,2.06-23.14.32-7.39.48-15.85.48-25.36v-177.84c0-8.66-.16-15.95-.48-21.87-.32-5.91-1.01-11.41-2.06-16.48,3.8.43,9.46.85,16.96,1.27,7.5.43,16.01.79,25.52,1.11,9.51.32,19.6.58,30.27.79,10.67.21,21.18.32,31.54.32s20.97-.1,31.86-.32c10.88-.21,21.18-.53,30.91-.95,9.72-.42,18.28-.79,25.68-1.11,7.39-.32,12.68-.68,15.85-1.11-.63,4.44-1.22,10.25-1.74,17.43-.53,7.19-.79,14.16-.79,20.92v172.45c0,9.51.16,17.96.47,25.36.32,7.39,1,15.11,2.06,23.14h-22.19v-26.94h-164.21Zm164.21-156.6v-56.43h-164.21v56.43h164.21Zm-164.21,15.85v54.52h164.21v-54.52h-164.21Zm0,70.37v55.16h164.21v-55.16h-164.21Z" style="fill:#1c5b44;"/></svg>